<?xml version="1.0" encoding="utf-8"?>
<!-- Generator: Adobe Illustrator 24.3.0, SVG Export Plug-In . SVG Version: 6.00 Build 0)  -->
<svg version="1.1" id="Layer_1" xmlns="http://www.w3.org/2000/svg" xmlns:xlink="http://www.w3.org/1999/xlink" x="0px" y="0px"
	 viewBox="0 0 132.15 73.68" style="enable-background:new 0 0 132.15 73.68;" xml:space="preserve">
<style type="text/css">
	.st0{fill:#FFFFFF;stroke:#231F20;stroke-miterlimit:10;}
	.st1{font-family:'Lato-BlackItalic';}
	.st2{font-size:39.764px;}
	.st3{font-size:37.9014px;}
</style>
<path class="st0" d="M53.74,72.03H8.32c-3.54,0-6.41-2.87-6.41-6.41v-52.3c0-3.54,2.87-6.41,6.41-6.41h45.42
	c3.54,0,6.41,2.87,6.41,6.41v52.3C60.15,69.16,57.28,72.03,53.74,72.03z"/>
<path class="st0" d="M43.04,12.48H18.63c-3.07,0-5.57-2.49-5.57-5.57v0c0-3.07,2.49-5.57,5.57-5.57h24.41
	c3.07,0,5.57,2.49,5.57,5.57v0C48.61,9.99,46.11,12.48,43.04,12.48z"/>
<text transform="matrix(0.966 0 0 1 4.0564 53.5482)" class="st1 st2">SIR</text>
<text transform="matrix(0.8086 0 0 1 60.1528 53.5485)" class="st1 st3">VASE</text>
</svg>
